<svg width="24" height="24" viewBox="0 0 24 24" fill="none" xmlns="http://www.w3.org/2000/svg">
<path d="M17.3323 23.2722C19.3894 23.2722 20.7771 22.6835 22.0219 21.3117C22.1135 21.2201 22.203 21.1188 22.2851 21.0251C22.9713 20.2504 23.3142 19.4433 23.3142 18.6944C23.3142 17.819 22.8368 17.0254 21.7896 16.2968L18.3035 13.8747C17.2024 13.1144 15.9403 13.0493 14.9538 14.0304L14.081 14.9053C13.7756 15.2128 13.4927 15.2287 13.1548 14.9887C12.5198 14.5671 11.3163 13.5129 10.4913 12.69C9.64897 11.8572 8.80803 10.8958 8.33928 10.1829C8.11522 9.83527 8.12694 9.5641 8.43233 9.2566L9.29765 8.38379C10.2905 7.39731 10.2274 6.12559 9.46499 5.03622L6.99445 1.4995C6.28687 0.488172 5.46163 0.00981256 4.58414 0.000203063C3.82898 -0.00940644 3.04289 0.322 2.26617 1.00403C2.16492 1.09356 2.07117 1.17349 1.98796 1.24708C0.592967 2.52466 0 3.8934 0 6.01145C0 9.46637 2.00344 13.5424 5.89828 17.4161C9.77179 21.2665 13.8131 23.2722 17.3323 23.2722ZM17.3271 21.3157C14.3409 21.3658 10.608 19.2251 7.3746 16.0223C4.12195 12.7983 1.91366 8.93856 1.96382 5.95239C1.98304 4.69075 2.43585 3.58801 3.32249 2.81856C3.41085 2.74192 3.4821 2.67489 3.57046 2.61207C3.90304 2.32848 4.25695 2.17707 4.58203 2.17707C4.91976 2.17707 5.22656 2.31231 5.45343 2.66387L7.66359 5.96645C7.935 6.3677 7.94578 6.82215 7.54875 7.21285L6.60187 8.15129C5.72156 9.01684 5.79281 10.0223 6.36187 10.818C6.99609 11.7077 8.17734 13.0476 9.17039 14.0226C10.2108 15.0642 11.6562 16.353 12.5196 16.9758C13.3174 17.5469 14.3229 17.6182 15.1863 16.7358L16.1248 15.791C16.5155 15.3918 16.9603 15.4069 17.3733 15.6665L20.6252 17.8261C20.9831 18.0626 21.112 18.3597 21.112 18.705C21.112 19.0301 20.9627 19.384 20.677 19.7187C20.6046 19.807 20.5472 19.8783 20.4705 19.9666C19.7011 20.8533 18.5983 21.2965 17.3271 21.3157Z" fill="#4CAC6C"/>
</svg>
