<svg width="21" height="21" viewBox="0 0 21 21" fill="none" xmlns="http://www.w3.org/2000/svg">
<path d="M18.8456 0C20.086 0 21 0.856087 21 2.00556C21 2.62364 20.8021 3.14816 20.3129 3.60412L10.1752 13.6628L6.2978 17.1441L12.7946 16.7279H16.3595C17.48 16.7279 18.421 17.5571 18.421 18.7151C18.421 19.9048 17.5247 20.8476 16.3727 20.8476H2.46641C0.837468 20.8476 0 20.0057 0 18.3768V4.59198C0 3.43567 0.95405 2.5683 2.12358 2.5683C3.2662 2.5683 4.11103 3.48465 4.11103 4.59639V8.03746L3.69914 14.5032L7.20486 10.6636L17.3425 0.638157C17.7828 0.202257 18.245 0 18.8456 0Z" fill="white"/>
</svg>
